<svg width="595" height="842" xmlns="http://www.w3.org/2000/svg">
 <g id="Layer_1">
  <title>Layer 1</title>
  <path stroke="#000" d="m39,318.5c1,0 4,0 7,0c3,0 8,0 14,0c6,0 12,0 18,0c5,0 10,0 15,0c5,0 9,0 14,0c4,0 8,0 12,0c4,0 7,0 11,0c3,0 5,0 7,0c4,0 8,0 12,0c4,0 8,0 11,0c2,0 4,0 8,0c1,0 3,0 6,0c3,0 6,0 12,0c2,0 4,0 5,0c1,0 2,0 3,0c1,0 2,0 2,0l1,0l0,0l1,0" id="svg_1" stroke-width="6" fill="none"/>
  <path d="m111,508.5c0,-1 0,-4 0,-6c0,-2 0,-5 0,-8c0,-2 0,-5 0,-11c0,-4 0,-7 0,-10c0,-4 0,-7 0,-11c0,-4 0,-7 0,-10c0,-4 0,-7 0,-10c0,-3 0,-6 0,-10c0,-3 0,-7 0,-10c0,-3 0,-6 0,-9c0,-4 0,-6 0,-9c0,-3 0,-6 0,-8c0,-2 0.98692,-4.75711 2,-11c0.32037,-1.97418 0.49346,-4.87857 1,-8c0.48055,-2.96127 0,-5 0,-8c0,-2 0.48626,-4.82376 1,-7c0.4595,-1.9465 1,-4 1,-5c0,-1 0,-2 0,-3c0,-1 0,-2 0,-2c0,-1 0,-2 0,-3c0,-1 1,-2 1,-2c0,-1 0,-1 2,-3c1,-1 2,-2 2,-3l0,0" id="svg_2" stroke-width="6" stroke="#000" fill="none"/>
  <path d="m208,325.5c1,0 18.90779,-2.49622 23,-3c4.96254,-0.61093 7.87856,-0.49347 11,-1c1.97418,-0.32037 4,-1 5,-1c1,0 2,-1 3,-1c1,0 2.07613,-0.61731 3,-1c1.30656,-0.5412 2,-1 3,-1c3,0 6.87857,-1.49347 10,-2c0.98709,-0.16019 3,0 5,0c3,0 6,-1 8,-1c2,0 3,0 4,0l0,0l2,0l0,0" id="svg_3" stroke-width="6" stroke="#000" fill="none"/>
  <path d="m216,503.5c-1,0 -1,-1 -1,-1c-1,-2 -1.51945,-3.03873 -2,-6c-0.50655,-3.12143 -1.61064,-5.15927 -3,-8c-1.58411,-3.23892 -3,-6 -3,-10c0,-5 0,-17 0,-22c0,-7 0,-13 0,-19c0,-5 -0.73309,-10.04495 0,-16c0.50377,-4.09222 3.49623,-9.90778 4,-14c0.36655,-2.97751 1,-8 1,-12c0,-4 0,-8 0,-11c0,-3 0,-6 0,-9c0,-3 1,-6 1,-9c0,-3 0,-6 0,-9c0,-2 0,-5 0,-8c0,-2 0,-5 0,-8c0,-2 0,-4 0,-6c0,-1 0,-3 0,-4l0,-1l0,0" id="svg_4" stroke-width="6" stroke="#000" fill="none"/>
  <path d="m315,494.5c-1,0 -2.4588,0.30655 -3,-1c-0.38269,-0.92389 0,-1 -1,-1c-1,0 -2.69345,-0.4588 -4,-1c-0.92389,-0.38269 -2,0 -3,0c-2,0 -4,0 -7,0c-3,0 -7,0 -10,0c-5,0 -9,0 -13,0c-4,0 -7,0 -9,0c-2,0 -4,0 -7,0c-3,0 -5,0 -12,0c-3,0 -6,0 -8,0c-2,0 -3,0 -4,0c-1,0 -2,0 -3,0c-1,0 -3,0 -4,0l-1,0l-1,0l0,-1" id="svg_5" stroke-width="6" stroke="#000" fill="none"/>
  <path d="m276,394.5c-1,0 -2,0 -4,0c-3,0 -5,0 -8,0c-3,0 -5,0 -8,0c-3,0 -6,0 -9,0c-3,0 -6,1 -8,1c-3,0 -4.82375,0.48627 -7,1c-0.97325,0.22977 -2,0 -3,0c-1,0 -2.82375,0.48627 -5,1c-0.97325,0.22977 -3,0 -4,0c-1,0 -2,1 -3,1l0,1" id="svg_6" stroke-width="6" stroke="#000" fill="none"/>
  <path d="m351,331.5c-1,1 -1,3 -1,5c0,3 0,5 0,7c0,3 0,5 0,8c0,2 -2.9176,4.38687 -4,7c-0.76538,1.84775 0.57956,4.08582 0,6c-1.04483,3.45084 -2,5 -2,6c0,1 -0.4588,1.69345 -1,3c-0.38269,0.92389 0,2 0,3c0,1 0,3 0,4c0,2 -0.49295,4.23401 -3,9c-1.67856,3.19098 -3.48627,5.82376 -4,8c-0.68927,2.91974 -1,5 -1,8c0,3 0,5 0,8c0,4 -0.49622,7.90778 -1,12c-0.36655,2.97751 0,7 0,8c0,2 0,5 0,7c0,4 0,7 0,10c0,3 0,7 0,11c0,4 0,8 0,11c0,3 -4.49622,8.90778 -5,13c-0.24435,1.98502 0,3 0,4c0,2 0,3 0,5c0,1 0,2 -1,2l0,-1" id="svg_7" stroke-width="6" stroke="#000" fill="none"/>
  <path d="m353,330.5c0,1 0,2 0,3c0,2 0.49756,2.92578 1,8c0.19708,1.99026 1,5 1,8c0,2 0.67963,5.02582 1,7c0.50653,3.12143 1.49622,4.90778 2,9c0.36655,2.97751 -0.48056,5.03873 0,8c0.50653,3.12143 1.49347,5.87857 2,9c0.32037,1.97418 1,5 1,7c0,2 1.70319,4.78372 2,7c0.67682,5.05389 -4,11 -4,15c0,4 1.49622,6.90778 2,11c0.36655,2.97751 0.51126,7.02997 1,11c0.50378,4.09222 1.26691,9.04495 2,15c0.50378,4.09222 1.78986,9.07843 3,12c1.71143,4.13171 2.4588,4.69345 3,6c0.38269,0.92389 0,2 0,3c0,1 1,2 1,2c0,1 0.61731,1.07611 1,2c0.5412,1.30655 1.29291,1.29291 2,2c0.70709,0.70709 1.14935,2.47427 2,3c1.9021,1.17557 1.29291,2.29291 2,3c0.70709,0.70709 1.29291,1.29291 2,2c0.70709,0.70709 1,2 1,2c0,0 1,0 1,1c0,1 0,1 0,-1c0,-2 0,-4 0,-7c0,-3 0,-7 0,-11c0,-3 -0.48874,-7.02997 0,-11c0.50378,-4.09222 1,-8 1,-12c0,-4 0.1991,-9.06458 1,-14c0.50653,-3.12143 2.49622,-6.90778 3,-11c0.36655,-2.97751 2,-7 2,-10c0,-3 0.31073,-5.08026 1,-8c0.51373,-2.17624 1.49347,-3.87857 2,-7c0.48056,-2.96127 -0.21014,-6.07843 1,-9c1.71143,-4.13171 3.05444,-7.97855 5,-13c3.08676,-7.96692 4.49347,-11.87857 5,-15c0.48056,-2.96127 0.9725,-4.64749 2,-9c0.22977,-0.97324 -0.76538,-3.15225 0,-5c0.5412,-1.30655 0.29291,-3.29291 1,-4c0.70709,-0.70709 1,-1 1,-2c0,0 0,-1 0,-1c1,0 1.49829,-0.06204 2,6c0.24744,2.98978 -0.15158,5.0451 2,12c0.9346,3.02103 1,7 2,9c1,2 2,4 3,7c1,3 0.84723,6.04132 2,10c0.88412,3.03616 1.49622,5.90778 2,10c0.36655,2.97751 1,6 1,8c0,3 1,5 1,7c0,2 0.49347,3.87857 1,7c0.32037,1.97418 0.48627,4.82376 1,7c0.4595,1.9465 1,4 1,7c0,1 -0.22977,5.02676 0,6c0.51373,2.17624 1.48627,1.82376 2,4c0.4595,1.9465 -0.57956,3.08582 0,5c1.04483,3.45084 2.31073,5.08026 3,8c0.51373,2.17624 1,5 1,7c0,1 0.4588,2.69345 1,4c0.38269,0.92389 0,1 0,2c0,1 0.4588,1.69345 1,3c0.76538,1.84775 0,5 0,7c0,1 1,2 1,2l0,1l0,1" id="svg_9" stroke-width="6" stroke="#000" fill="none"/>
  <path d="m458,403.5c0,0 4.0535,0.4595 6,0c2.17624,-0.51373 5,-1 8,-1c1,0 2,0 3,0l1,0l1,0" id="svg_10" stroke-width="6" stroke="#000" fill="none"/>
  <path d="m512,303.5c0,1 0,3 0,5c0,3 -0.49347,5.87857 -1,9c-0.48056,2.96127 -1,6 -1,9c0,3 0,5 0,8c0,5 0,8 0,10c0,3 0,6 0,9c0,2 0,5 0,6c0,1 0,3 0,4c0,0 0,2 0,3c0,1 0,3 0,6c0,3 0,5 0,7c0,2 0,3 0,5c0,2 0,3 0,4c0,1 0,1 1,1c13,0 19,0 25,0c10,0 13,0 16,0c1,0 2,0 4,0c1,0 2,0 2,0l1,0l0,0" id="svg_11" stroke-width="6" stroke="#000" fill="none"/>
  <path d="m532,312.5c0,1 0,3 0,8c0,4 0,7 0,10c0,4 0,8 0,11c0,4 0,7 0,11c0,2 0,6 0,9c0,4 0,9 0,14c0,5 0,10 0,15c0,6 0,12 0,18c0,5 0,8 0,12c0,4 0,8 0,10c0,4 0,7 0,11c0,3 0,6 0,8c0,2 0,8 0,11c0,2 0,4 0,6c0,2 0,5 0,6c0,2 0,4 0,6c0,3 0,5 0,8c0,2 0,4 0,6c0,2 0,4 0,5c0,1 0,2 0,3c0,1 0,2 0,4c0,1 0.54047,1.0535 1,3c0.51373,2.17624 1,3 1,4c0,1 0,1 0,3c0,1 0,2 0,3c0,1 0,1 0,3c0,1 0,2 0,3c0,1 1,2 1,3c0,0 0,1 0,2l1,0" id="svg_12" stroke-width="6" stroke="#000" fill="none"/>
 </g>
</svg>